<?xml version="1.0" encoding="UTF-8" standalone="no"?>
<svg xmlns="http://www.w3.org/2000/svg" xmlns:xlink="http://www.w3.org/1999/xlink" style="isolation:isolate" viewBox="0 0 233 84.03" width="233pt" height="84.03pt"><defs><clipPath id="_clipPath_dH0wSx4c534IFGmwM5MCJRj79QPER4sd"><rect width="233" height="84.03"/></clipPath></defs><g clip-path="url(#_clipPath_dH0wSx4c534IFGmwM5MCJRj79QPER4sd)"><path d=" M 51.5 66.572 L 91.5 66.572 L 91.5 16.572 L 51.5 16.572 L 51.5 26.572 L 81.5 26.572 L 81.5 36.572 L 51.5 36.572 L 51.5 66.572 Z  M 61.5 46.572 L 61.5 56.572 L 81.5 56.572 L 81.5 46.572 L 61.5 46.572 Z " fill-rule="evenodd" fill="rgb(255,255,255)"/><path d=" M 41.5 66.572 L 41.5 16.572 L 1.5 16.572 L 1.5 66.572 L 11.5 66.572 L 11.5 26.572 L 31.5 26.572 L 31.5 66.572 L 41.5 66.572 Z " fill="rgb(255,255,255)"/><path d=" M 181.5 16.572 L 141.5 16.572 L 141.5 66.572 L 181.5 66.572 L 181.5 56.572 L 151.5 56.572 L 151.5 46.572 L 181.5 46.572 L 181.5 16.572 Z  M 171.5 36.572 L 171.5 26.572 L 151.5 26.572 L 151.5 36.572 L 171.5 36.572 Z " fill-rule="evenodd" fill="rgb(255,255,255)"/><path d=" M 191.5 16.572 L 191.5 66.572 L 231.5 66.572 L 231.5 16.572 L 221.5 16.572 L 221.5 56.572 L 201.5 56.572 L 201.5 16.572 L 191.5 16.572 Z " fill="rgb(255,255,255)"/><g filter="url(#hMxgnx1pI620lR2HFWOnuXuYJSqs8PJ6)"><path d=" M 104.08 42.015 C 104.745 37.151 94.764 26.489 97.869 23.384 C 100.974 20.279 111.635 30.26 116.5 29.595 C 127.592 28.077 150.657 1.649 153.762 4.753 C 156.867 7.858 130.438 30.923 128.92 42.015 C 128.255 46.88 138.236 57.54 135.131 60.646 C 132.026 63.751 121.364 53.77 116.5 54.436 C 105.408 55.953 82.344 82.382 79.238 79.276 C 76.133 76.171 102.562 53.107 104.08 42.015 Z " fill="rgb(93,93,93)"/><path d=" M 94.764 10.964 C 92.191 8.392 88.021 8.391 85.448 10.964 C 82.876 13.535 82.876 17.706 85.448 20.279 C 88.021 22.851 93.744 24.404 96.316 21.832 C 98.889 19.259 97.336 13.536 94.764 10.964 Z " fill="rgb(93,93,93)"/><path d=" M 147.551 63.751 C 150.123 66.323 150.124 70.493 147.551 73.067 C 144.979 75.638 140.808 75.638 138.235 73.067 C 135.663 70.494 134.111 64.771 136.683 62.199 C 139.256 59.626 144.978 61.178 147.551 63.751 Z " fill="rgb(93,93,93)"/></g><defs><filter id="hMxgnx1pI620lR2HFWOnuXuYJSqs8PJ6" x="-200%" y="-200%" width="400%" height="400%" filterUnits="objectBoundingBox" color-interpolation-filters="sRGB"><feGaussianBlur xmlns="http://www.w3.org/2000/svg" in="SourceGraphic" stdDeviation="0.8587218125678057"/><feOffset xmlns="http://www.w3.org/2000/svg" dx="0" dy="0" result="pf_100_offsetBlur"/><feFlood xmlns="http://www.w3.org/2000/svg" flood-color="#000000" flood-opacity="0.65"/><feComposite xmlns="http://www.w3.org/2000/svg" in2="pf_100_offsetBlur" operator="in" result="pf_100_dropShadow"/><feBlend xmlns="http://www.w3.org/2000/svg" in="SourceGraphic" in2="pf_100_dropShadow" mode="normal"/></filter></defs></g></svg>